# AST/ASF file generated using VICON BodyLanguage
# -----------------------------------------------
:version 1.10
:name VICON
:units
  mass 1.0
  length 0.45
  angle deg
:documentation
   .ast/.asf automatically generated from VICON data using
   VICON BodyBuilder and BodyLanguage model FoxedUp or BRILLIANT.MOD
:root
   order TX TY TZ RX RY RZ
   axis XYZ
   position 0 0 0  
   orientation 0 0 0 
:bonedata
  begin
     id 1 
     name lhipjoint
     direction 0.610259 -0.730986 0.305356 
     length 2.50941 
     axis 0 0 0  XYZ
  end
  begin
     id 2 
     name lfemur
     direction 0.34202 -0.939693 0  
     length 7.48822  
     axis 0 0 20  XYZ
    dof rx ry rz
    limits (-160.0 20.0)
           (-70.0 70.0)
           (-60.0 70.0)
  end
  begin
     id 3 
     name ltibia
     direction 0.34202 -0.939693 0   
     length 7.60141   
     axis 0 0 20   XYZ
    dof rx
    limits (-10.0 170.0)
  end
  begin
     id 4 
     name lfoot
     direction 0.0673488 -0.185039 0.980421   
     length 2.04049   
     axis -90 7.62852e-016 20   XYZ
    dof rx rz
    limits (-45.0 90.0)
           (-70.0 20.0)
  end
  begin
     id 5 
     name ltoes
     direction 1.5356e-011 -4.21729e-011 1   
     length 1.02897   
     axis -90 7.62852e-016 20   XYZ
    dof rx
    limits (-90.0 20.0)
  end
  begin
     id 6 
     name rhipjoint
     direction -0.57612 -0.754205 0.315056   
     length 2.43216  
     axis 0 0 0  XYZ 
  end
  begin
     id 7 
     name rfemur
     direction -0.34202 -0.939693 0   
     length 7.42799   
     axis 0 0 -20   XYZ
    dof rx ry rz
    limits (-160.0 20.0)
           (-70.0 70.0)
           (-70.0 60.0)
  end
  begin
     id 8 
     name rtibia
     direction -0.34202 -0.939693 0   
     length 7.69484   
     axis 0 0 -20   XYZ
    dof rx
    limits (-10.0 170.0)
 end
 begin
     id 9 
     name rfoot
     direction -0.111837 -0.30727 0.945028   
     length 2.15769  
     axis -90 -7.62852e-016 -20   XYZ
    dof rx rz
    limits (-45.0 90.0)
           (-20.0 70.0)
  end
  begin
     id 10 
     name rtoes
     direction -1.53539e-011 -4.21878e-011 1   
     length 1.07391   
     axis -90 -7.62852e-016 -20   XYZ
    dof rx
    limits (-90.0 20.0)
  end
  begin
     id 11 
     name lowerback
     direction 0.00552624 0.990109 -0.140195   
     length 2.12403   
     axis 0 0 0   XYZ
    dof rx ry rz
    limits (-20.0 45.0)
           (-30.0 30.0)
           (-30.0 30.0)
  end
  begin
     id 12 
     name upperback
     direction 0.00361898 0.999976 -0.00584723   
     length 2.13232   
     axis 0 0 0   XYZ
    dof rx ry rz
    limits (-20.0 45.0)
           (-30.0 30.0)
           (-30.0 30.0)
  end
  begin
     id 13 
     name thorax
     direction -0.000331275 0.998253 0.0590847   
     length 2.17688   
     axis 0 0 0   XYZ
    dof rx ry rz
    limits (-20.0 45.0)
           (-30.0 30.0)
           (-30.0 30.0)
  end
  begin
     id 14 
     name lowerneck
     direction -0.0561561 0.979832 0.19177   
     length 1.64159   
     axis 0 0 0   XYZ
    dof rx ry rz
    limits (-20.0 45.0)
           (-30.0 30.0)
           (-30.0 30.0)
  end
  begin
     id 15 
     name upperneck
     direction 0.0827153 0.979385 -0.184293   
     length 1.68939   
     axis 0 0 0   XYZ
    dof rx ry rz
    limits (-20.0 45.0)
           (-30.0 30.0)
           (-30.0 30.0)
  end
  begin
     id 16
     name head
     direction 0.0278583 0.995936 -0.0856488  
     length 1.70207  
     axis 0 0 0   XYZ
    dof rx ry rz
    limits (-20.0 45.0)
           (-30.0 30.0)
           (-30.0 30.0)
  end
  begin
     id 17 
     name lclavicle
     direction 0.950993 0.301131 -0.0702275  
     length 3.41652  
     axis 0 0 0   XYZ
    dof ry rz
    limits (-20.0 10.0)
           (0.0 20.0)
  end
  begin
     id 18 
     name lhumerus
     direction 1 -4.48981e-011 -3.9662e-029   
     length 5.32955   
     axis 180 -30 -90   XYZ
    dof rx ry rz
    limits (-60.0 90.0)
           (-90.0 90.0)
           (-90.0 90.0)
  end
  begin
     id 19
     name lradius
     direction 1 -4.48925e-011 -9.0549e-027   
     length 3.69232   
     axis 180 -30 -90   XYZ
    dof rx
    limits (-10.0 170.0)
  end
  begin
     id 20
     name lwrist
     direction 1 -4.49007e-011 -1.49005e-026   
     length 1.84616   
     axis 9.0955e-015 90 90   XYZ
    dof ry
    limits (-180.0 0.0)
 end
  begin
     id 21 
     name lhand
     direction 1 -4.49016e-011 -2.98023e-026   
     length 0.536598   
     axis 1.90115e-014 90 90   XYZ
    dof rx rz
    limits (-90.0 90.0)
           (-45.0 45.0)
  end
  begin
     id 22 
     name lfingers
     direction 1 -4.48924e-011 -5.9578e-026   
     length 0.432619   
     axis 3.80223e-014 90 90   XYZ
    dof rx
    limits (0.0 90.0)
  end
  begin
     id 23
     name lthumb
     direction 0.707107 -6.34947e-011 0.707107   
     length 0.621157   
     axis -90 45 -3.84942e-014   XYZ
    dof rx rz
    limits (-45.0 45.0)
           (-45.0 45.0)
  end
  begin
     id 24 
     name rclavicle
     direction -0.955495 0.276497 -0.102848   
     length 3.36357  
     axis 0 0 0   XYZ 
    dof ry rz
    limits (-10.0 20.0)
           (-20.0 0.0)
  end
  begin
     id 25 
     name rhumerus
     direction -1 -4.48961e-011 3.30983e-027  
     length 5.23431   
     axis 180 30 90   XYZ
    dof rx ry rz
    limits (-90.0 60.0)
           (-90.0 90.0)
           (-90.0 90.0)
  end
  begin
     id 26 
     name rradius
     direction -1 -4.48965e-011 -6.63263e-027   
     length 3.55301   
     axis 180 30 90   XYZ
    dof rx
    limits (-10.0 170.0)
  end
  begin
     id 27 
     name rwrist
     direction -1 -4.48942e-011 -1.48958e-026   
     length 1.77651   
     axis 9.0955e-015 -90 -90   XYZ
    dof ry
    limits (-180.0 0.0)
  end
  begin
     id 28
     name rhand
     direction -1 -4.48977e-011 -2.97966e-026   
     length 0.772522   
     axis 1.90115e-014 -90 -90   XYZ
    dof rx rz
    limits (-90.0 90.0)
           (-45.0 45.0)
  end
  begin
     id 29
     name rfingers
     direction -1 -4.49135e-011 -5.96389e-026   
     length 0.622827   
     axis 3.80223e-014 -90 -90   XYZ
    dof rx
    limits (0.0 90.0)
  end
  begin
     id 30
     name rthumb
     direction -0.707107 -6.34969e-011 0.707107   
     length 0.894259   
     axis -90 -45 3.84942e-014   XYZ
    dof rx rz
    limits (-45.0 45.0)
           (-45.0 45.0)
  end
:hierarchy
  begin
    root lhipjoint rhipjoint lowerback
    lhipjoint lfemur
    lfemur ltibia
    ltibia lfoot
    lfoot ltoes
    rhipjoint rfemur
    rfemur rtibia
    rtibia rfoot
    rfoot rtoes
    lowerback upperback
    upperback thorax
    thorax lowerneck lclavicle rclavicle
    lowerneck upperneck
    upperneck head
    lclavicle lhumerus
    lhumerus lradius
    lradius lwrist
    lwrist lhand lthumb
    lhand lfingers
    rclavicle rhumerus
    rhumerus rradius
    rradius rwrist
    rwrist rhand rthumb
    rhand rfingers
  end

#!OML:ASF F:\VICON\USERDATA\INSTALL\rory3\rory3.ASF
:FULLY-SPECIFIED
:DEGREES
107
root -12.1121 17.8227 -7.96053 -66.5802 87.1526 -68.5826
lowerback 11.1627 1.83755 4.92124
upperback 0.83883 3.16497 1.07174
thorax -5.17669 1.48057 -2.13043
lowerneck -15.9298 -5.43236 -11.9298
upperneck 36.9235 -4.74304 5.2013
head 16.427 -2.48214 3.64117
rclavicle 3.28989e-014 -9.93923e-015
rhumerus -29.4334 -11.7891 -77.3458
rradius 33.3638
rwrist 3.51734
rhand -15.5747 8.59254
rfingers 7.12502
rthumb 10.6105 -21.1196
lclavicle 3.28989e-014 -9.93923e-015
lhumerus -34.9936 10.9748 79.5622
lradius 24.5786
lwrist -9.6174
lhand -18.4911 24.9519
lfingers 7.12502
lthumb 7.79635 54.7882
rfemur -0.460989 -5.76451 29.1877
rtibia 18.2648
rfoot -16.0354 -8.2901
rtoes 9.01103
lfemur -25.5943 3.77271 -17.6786
ltibia 41.4206
lfoot -9.58005 -4.55852
ltoes -8.19703
108
root -12.08 17.8172 -7.95952 -68.2572 87.1383 -70.2666
lowerback 11.2269 1.89987 5.08709
upperback 0.846987 3.26795 0.999867
thorax -5.18338 1.52661 -2.31595
lowerneck -15.9105 -5.47897 -12.0177
upperneck 36.9377 -4.82536 5.31941
head 16.4481 -2.51116 3.69543
rclavicle -8.44835e-016 2.38542e-015
rhumerus -29.4556 -11.7258 -77.4838
rradius 33.2512
rwrist 3.62494
rhand -15.525 8.79463
rfingers 7.12502
rthumb 10.6584 -20.915
lclavicle -8.44835e-016 2.38542e-015
lhumerus -35.1164 10.6054 79.6508
lradius 24.6709
lwrist -9.3959
lhand -18.5634 24.8939
lfingers 7.12502
lthumb 7.7266 54.7327
rfemur -0.249775 -5.7503 29.2328
rtibia 18.0688
rfoot -16.0356 -8.35886
rtoes 9.47419
lfemur -25.8067 4.08489 -17.7413
ltibia 40.483
lfoot -9.51767 -3.98794
ltoes -12.3774
109
root -12.044 17.8095 -7.95783 -69.4463 87.056 -71.4252
lowerback 11.2976 1.94487 5.27697
upperback 0.870602 3.35399 0.965197
thorax -5.17879 1.56515 -2.47351
lowerneck -15.8844 -5.51859 -12.1245
upperneck 36.9557 -4.87651 5.3985
head 16.466 -2.53573 3.74147
rclavicle 1.02374e-014 -1.11319e-014
rhumerus -29.4619 -11.7226 -77.5694
rradius 33.1311
rwrist 3.90754
rhand -15.4796 8.80552
rfingers 7.12502
rthumb 10.7022 -20.9019
lclavicle 1.02374e-014 -1.11319e-014
lhumerus -35.2892 10.2915 79.7759
lradius 24.6898
lwrist -9.43157
lhand -19.4382 24.5627
lfingers 7.12502
lthumb 6.88215 54.4308
rfemur 0.0708113 -5.7584 29.327
rtibia 17.7781
rfoot -15.8165 -7.70228
rtoes 11.4372
lfemur -25.9602 4.24597 -17.702
ltibia 39.5263
lfoot -9.08785 -3.35529
ltoes -13.1046
110
root -12.0064 17.8107 -7.95423 -71.3457 87.0141 -73.2875
lowerback 11.3805 1.97115 5.33169
upperback 0.89903 3.4019 0.974938
thorax -5.18886 1.58825 -2.50414
lowerneck -15.845 -5.48191 -12.1142
upperneck 36.9062 -4.85235 5.46185
head 16.4281 -2.51438 3.77132
rclavicle -2.27111e-014 2.0276e-014
rhumerus -29.4938 -11.4904 -77.6843
rradius 33.1033
rwrist 3.82314
rhand -15.5569 8.70292
rfingers 7.12502
rthumb 10.6276 -21.0083
lclavicle -2.27111e-014 2.0276e-014
lhumerus -35.4554 10.2916 79.8557
lradius 24.7395
lwrist -9.5303
lhand -19.7044 24.4348
lfingers 7.12502
lthumb 6.62514 54.3111
rfemur 0.428338 -5.54429 29.4453
rtibia 17.4473
rfoot -15.5973 -7.55544
rtoes 12.4835
lfemur -26.0651 3.93698 -17.5583
ltibia 38.5417
lfoot -8.79066 -2.68648
ltoes -11.2975
111
root -11.9694 17.82 -7.95136 -73.483 87.124 -75.4624
lowerback 11.4061 2.01668 5.2579
upperback 0.911908 3.44886 0.897214
thorax -5.18509 1.61221 -2.55201
lowerneck -15.7976 -5.47537 -11.9444
upperneck 36.8087 -4.89525 5.42594
head 16.3607 -2.51213 3.71323
rclavicle 2.1916e-014 1.98785e-015
rhumerus -29.5487 -11.2699 -77.8901
rradius 33.1033
rwrist 3.55497
rhand -15.681 8.63686
rfingers 7.12502
rthumb 10.5079 -21.0805
lclavicle 2.1916e-014 1.98785e-015
lhumerus -35.5844 10.0866 79.9368
lradius 24.941
lwrist -9.24078
lhand -19.6438 24.685
lfingers 7.12502
lthumb 6.68371 54.5595
rfemur 0.731011 -5.3067 29.4091
rtibia 17.0441
rfoot -16.2341 -9.55744
rtoes 7.03842
lfemur -26.225 3.5658 -17.5372
ltibia 37.5319
lfoot -8.67732 -2.36881
ltoes -10.6298
112
root -11.9327 17.8246 -7.95009 -75.5745 87.0897 -77.6336
lowerback 11.3951 2.02985 5.39512
upperback 0.909493 3.47855 0.826984
thorax -5.16661 1.62337 -2.70596
lowerneck -15.7433 -5.49683 -11.7844
upperneck 36.7261 -4.93493 5.2792
head 16.297 -2.52612 3.60825
rclavicle -5.10877e-014 -1.55052e-014
rhumerus -29.522 -11.2948 -78.0313
rradius 32.9394
rwrist 3.89989
rhand -15.3845 8.832
rfingers 7.12502
rthumb 10.7939 -20.8706
lclavicle -5.10877e-014 -1.55052e-014
lhumerus -35.7448 9.78952 80.0166
lradius 25.2021
lwrist -8.74683
lhand -19.8065 24.9702
lfingers 7.12502
lthumb 6.52663 54.8496
rfemur 1.02645 -5.09251 29.4928
rtibia 16.578
rfoot -16.2193 -9.66243
rtoes 7.83035
lfemur -26.4555 3.38663 -17.4129
ltibia 36.5222
lfoot -8.37015 -2.19059
ltoes -9.73867
113
root -11.8929 17.8236 -7.94561 -76.8476 87.0371 -78.9344
lowerback 11.4353 2.05939 5.4366
upperback 0.909971 3.52829 0.86007
thorax -5.1842 1.64696 -2.70379
lowerneck -15.7415 -5.53886 -11.8994
upperneck 36.7796 -4.92482 5.21054
head 16.3282 -2.5467 3.60192
rclavicle -1.7344e-014 -9.14409e-015
rhumerus -29.5269 -11.1161 -78.0852
rradius 32.8026
rwrist 4.11004
rhand -15.1868 8.97488
rfingers 7.12502
rthumb 10.9846 -20.7177
lclavicle -1.7344e-014 -9.14409e-015
lhumerus -35.9472 9.94576 80.071
lradius 25.3917
lwrist -8.65543
lhand -19.7511 24.9984
lfingers 7.12502
lthumb 6.58008 54.8762
rfemur 1.41996 -5.08146 29.5808
rtibia 16.0616
rfoot -16.1065 -9.68463
rtoes 7.83867
lfemur -26.6317 3.42838 -17.3242
ltibia 35.5138
lfoot -8.12153 -1.8624
ltoes -9.50149
114
root -11.85 17.8219 -7.93844 -78.1602 87.0292 -80.2352
lowerback 11.4905 2.11972 5.36922
upperback 0.934536 3.60588 0.901633
thorax -5.1895 1.68775 -2.63617
lowerneck -15.8126 -5.59505 -12.0958
upperneck 36.9015 -4.93209 5.23838
head 16.4224 -2.57232 3.65252
rclavicle 3.56322e-014 5.1684e-015
rhumerus -29.5715 -10.9086 -78.1475
rradius 32.7358
rwrist 4.08927
rhand -15.0483 8.95412
rfingers 7.12502
rthumb 11.1182 -20.7314
lclavicle 3.56322e-014 5.1684e-015
lhumerus -36.0817 10.0855 80.1696
lradius 25.5257
lwrist -8.71787
lhand -19.666 24.8356
lfingers 7.12502
lthumb 6.66227 54.7108
rfemur 1.85047 -5.16314 29.6121
rtibia 15.5323
rfoot -15.9589 -9.67146
rtoes 7.76477
lfemur -26.7486 3.40773 -17.2636
ltibia 34.4999
lfoot -7.97439 -1.46493
ltoes -12.2742
115
root -11.8059 17.8222 -7.93314 -79.9111 86.9744 -81.9633
lowerback 11.5596 2.15842 5.41604
upperback 0.959948 3.66642 0.882221
thorax -5.19211 1.71694 -2.69438
lowerneck -15.8151 -5.59085 -12.1404
upperneck 36.9554 -4.945 5.35158
head 16.4585 -2.56696 3.71203
rclavicle -5.06404e-014 -3.69739e-014
rhumerus -29.6227 -10.9046 -78.2569
rradius 32.6295
rwrist 4.28282
rhand -14.822 9.03027
rfingers 7.12502
rthumb 11.3364 -20.6433
lclavicle -5.06404e-014 -3.69739e-014
lhumerus -36.2056 9.97268 80.2164
lradius 25.705
lwrist -8.63521
lhand -19.4655 24.7443
lfingers 7.12502
lthumb 6.85582 54.6133
rfemur 2.22631 -5.12077 29.6873
rtibia 15.102
rfoot -15.8536 -9.75248
rtoes 7.96795
lfemur -26.8192 3.07906 -17.0741
ltibia 33.4282
lfoot -7.65295 -1.08015
ltoes -13.0643
116
root -11.7628 17.8262 -7.93221 -83.1297 87.051 -85.1634
lowerback 11.6408 2.12575 5.40326
upperback 0.981311 3.6213 0.802175
thorax -5.21393 1.69383 -2.76808
lowerneck -15.8168 -5.55575 -12.0276
upperneck 36.9719 -4.94418 5.39699
head 16.4621 -2.54354 3.71416
rclavicle -8.69683e-015 -2.0276e-014
rhumerus -29.631 -10.6385 -78.5334
rradius 32.5225
rwrist 4.16089
rhand -14.903 9.01266
rfingers 7.12502
rthumb 11.2584 -20.6652
lclavicle -8.69683e-015 -2.0276e-014
lhumerus -36.3524 10.0695 80.1056
lradius 25.9263
lwrist -8.61228
lhand -19.3446 24.7268
lfingers 7.12502
lthumb 6.97255 54.592
rfemur 2.57492 -5.26735 29.6063
rtibia 14.7187
rfoot -15.8421 -9.74709
rtoes 8.46202
lfemur -26.8591 2.55056 -16.96
ltibia 32.2966
lfoot -7.23418 -0.912243
ltoes -9.91159
117
root -11.721 17.8296 -7.93223 -86.2681 87.2752 -88.3679
lowerback 11.6352 2.1624 5.1795
upperback 1.00102 3.63273 0.700842
thorax -5.19576 1.70382 -2.75
lowerneck -15.8418 -5.58305 -11.8306
upperneck 36.9645 -5.00763 5.29116
head 16.4587 -2.5555 3.61931
rclavicle 6.90777e-015 8.74653e-015
rhumerus -29.6519 -10.3739 -78.7534
rradius 32.4788
rwrist 3.92855
rhand -14.9822 8.99891
rfingers 7.12502
rthumb 11.1819 -20.6831
lclavicle 6.90777e-015 8.74653e-015
lhumerus -36.4256 10.0275 80.1476
lradius 26.1734
lwrist -8.41981
lhand -19.5566 24.86
lfingers 7.12502
lthumb 6.76785 54.7318
rfemur 2.83941 -5.27669 29.4065
rtibia 14.3537
rfoot -15.7731 -9.93192
rtoes 8.39124
lfemur -26.9837 2.2335 -17.0659
ltibia 31.1253
lfoot -6.81049 -0.88046
ltoes -7.36283
118
root -11.6742 17.8302 -7.93433 -87.8996 87.3996 -90.014
lowerback 11.6482 2.26154 5.05176
upperback 1.0335 3.74441 0.652502
thorax -5.16423 1.76263 -2.74542
lowerneck -15.821 -5.65525 -11.7984
upperneck 36.9528 -5.10716 5.24171
head 16.4573 -2.59756 3.57221
rclavicle 1.13804e-014 -6.36111e-015
rhumerus -29.6843 -10.4602 -78.7566
rradius 32.3567
rwrist 4.09985
rhand -15.0106 9.00108
rfingers 7.12502
rthumb 11.1545 -20.6824
lclavicle 1.13804e-014 -6.36111e-015
lhumerus -36.5103 9.6697 80.4271
lradius 26.4512
lwrist -7.97827
lhand -19.6124 24.8904
lfingers 7.12502
lthumb 6.71396 54.764
rfemur 3.18288 -4.93398 29.3342
rtibia 14.0192
rfoot -15.6974 -10.373
rtoes 8.31259
lfemur -27.0282 2.1917 -17.1883
ltibia 29.9602
lfoot -6.47349 -0.848844
ltoes -8.23359
119
root -11.6244 17.8286 -7.9341 -90.1752 87.2991 -92.2934
lowerback 11.6759 2.26763 5.15096
upperback 1.06446 3.76885 0.679902
thorax -5.14071 1.77463 -2.77626
lowerneck -15.8649 -5.65992 -11.8408
upperneck 36.9922 -5.06863 5.19094
head 16.4851 -2.59371 3.56555
rclavicle 4.72114e-015 -1.39149e-014
rhumerus -29.7591 -10.3449 -78.8419
rradius 32.3522
rwrist 4.14371
rhand -14.9238 8.81146
rfingers 7.12502
rthumb 11.2383 -20.8675
lclavicle 4.72114e-015 -1.39149e-014
lhumerus -36.6304 9.6092 80.5736
lradius 26.6572
lwrist -7.74608
lhand -19.3065 24.7817
lfingers 7.12502
lthumb 7.00933 54.6456
rfemur 3.56543 -4.62475 29.5029
rtibia 13.6452
rfoot -15.6391 -10.7898
rtoes 8.23845
lfemur -27.0599 2.00153 -17.0356
ltibia 28.8464
lfoot -6.33432 -0.70923
ltoes -9.85019
120
root -11.5765 17.8274 -7.93002 -92.0508 87.0706 -94.2225
lowerback 11.6935 2.22494 5.2793
upperback 1.06873 3.73648 0.768002
thorax -5.14673 1.75732 -2.75179
lowerneck -15.9326 -5.59153 -11.9308
upperneck 37.0231 -4.91638 5.17797
head 16.5035 -2.54498 3.60547
rclavicle -3.926e-015 -1.47101e-014
rhumerus -29.8258 -9.82467 -79.0366
rradius 32.3404
rwrist 3.9568
rhand -14.9269 8.78071
rfingers 7.12502
rthumb 11.2353 -20.8984
lclavicle -3.926e-015 -1.47101e-014
lhumerus -36.8275 9.76344 80.6355
lradius 26.9499
lwrist -7.51672
lhand -19.2555 24.8271
lfingers 7.12502
lthumb 7.05857 54.6895
rfemur 3.92247 -4.67903 29.7648
rtibia 13.1452
rfoot -15.4797 -10.843
rtoes 7.88129
lfemur -27.1952 1.73516 -16.6593
ltibia 27.8195
lfoot -6.3537 -0.582293
ltoes -8.64243
121
root -11.5253 17.827 -7.92848 -91.8929 86.9925 -94.053
lowerback 11.7361 2.27211 5.29165
upperback 1.10231 3.80472 0.792746
thorax -5.13033 1.79251 -2.74414
lowerneck -15.9497 -5.60657 -12.0782
upperneck 37.0493 -4.92077 5.27948
head 16.5332 -2.55321 3.6776
rclavicle 1.05356e-014 -1.98785e-015
rhumerus -29.8679 -9.501 -79.1546
rradius 32.2553
rwrist 3.89855
rhand -14.8784 8.81309
rfingers 7.12502
rthumb 11.282 -20.8635
lclavicle 1.05356e-014 -1.98785e-015
lhumerus -36.9678 9.74537 80.7498
lradius 27.2197
lwrist -7.40561
lhand -20.1866 24.9737
lfingers 7.12502
lthumb 6.1597 54.8641
rfemur 4.36925 -4.96075 29.7839
rtibia 12.6126
rfoot -15.3103 -10.5832
rtoes 7.33523
lfemur -27.217 1.41198 -16.4092
ltibia 26.8309
lfoot -6.39632 -0.351437
ltoes -8.03242
